<?xml version="1.0" encoding="UTF-8" standalone="no"?>
<!-- Created with Inkscape (http://www.inkscape.org/) -->

<svg
   xmlns:dc="http://purl.org/dc/elements/1.1/"
   xmlns:cc="http://creativecommons.org/ns#"
   xmlns:rdf="http://www.w3.org/1999/02/22-rdf-syntax-ns#"
   xmlns:svg="http://www.w3.org/2000/svg"
   xmlns="http://www.w3.org/2000/svg"
   xmlns:sodipodi="http://sodipodi.sourceforge.net/DTD/sodipodi-0.dtd"
   xmlns:inkscape="http://www.inkscape.org/namespaces/inkscape"
   width="210mm"
   height="297mm"
   viewBox="0 0 744.09448819 1052.3622047"
   id="svg4331"
   version="1.1"
   inkscape:version="0.91 r13725"
   sodipodi:docname="abercompsoc-logo.svg">
  <defs
     id="defs4333" />
  <sodipodi:namedview
     id="base"
     pagecolor="#ffffff"
     bordercolor="#666666"
     borderopacity="1.0"
     inkscape:pageopacity="0.0"
     inkscape:pageshadow="2"
     inkscape:zoom="1.4"
     inkscape:cx="271.58189"
     inkscape:cy="880.04085"
     inkscape:document-units="px"
     inkscape:current-layer="layer1"
     showgrid="false"
     inkscape:window-width="1366"
     inkscape:window-height="704"
     inkscape:window-x="0"
     inkscape:window-y="27"
     inkscape:window-maximized="1"
     showguides="true"
     inkscape:guide-bbox="true" />
  <metadata
     id="metadata4336">
    <rdf:RDF>
      <cc:Work
         rdf:about="">
        <dc:format>image/svg+xml</dc:format>
        <dc:type
           rdf:resource="http://purl.org/dc/dcmitype/StillImage" />
      </cc:Work>
    </rdf:RDF>
  </metadata>
  <g
     inkscape:label="Layer 1"
     inkscape:groupmode="layer"
     id="layer1">
    <g
       id="g4443"
       transform="translate(0,-0.80466461)">
      <circle
         r="79.489166"
         cy="102.05848"
         cx="111.61955"
         id="path4242"
         style="fill:#ffcc00;fill-opacity:1" />
      <text
         sodipodi:linespacing="125%"
         id="text3604"
         y="126.98237"
         x="41.336124"
         style="font-style:normal;font-weight:normal;font-size:94.91679382px;line-height:125%;font-family:sans-serif;letter-spacing:0px;word-spacing:0px;fill:#000000;fill-opacity:1;stroke:none;stroke-width:1px;stroke-linecap:butt;stroke-linejoin:miter;stroke-opacity:1"
         xml:space="preserve"><tspan
           style="font-style:normal;font-variant:normal;font-weight:normal;font-stretch:normal;font-family:'Ubuntu Mono';-inkscape-font-specification:'Ubuntu Mono'"
           y="126.98237"
           x="41.336124"
           id="tspan3606"
           sodipodi:role="line">{ }</tspan></text>
      <path
         id="path5782"
         d="m 116.89244,75.510754 c 1.34504,-0.6527 1.6731,-0.16559 1.6731,-0.16559 0,0 0.12936,1.15617 -0.16238,1.12302 -0.93416,-0.14251 -2.98804,0.13232 -2.98804,0.13232 0,0 0.13231,-0.43394 1.47735,-1.08985 m 22.32193,24.975516 c 0.24531,-0.937586 0.19566,-2.335606 -0.46037,-2.925206 -0.65594,-0.60296 -3.56809,-1.34503 -3.56809,-1.34503 -0.69896,-1.59354 3.81657,0.0961 3.81657,0.0961 0.14895,-2.48462 -3.07103,-3.05122 -4.77048,-2.46804 -3.84954,5.19453 -9.14671,0.32798 -9.14671,-1.45099 -0.34453,-6.39053 -5.16806,-9.6967 -6.81448,-10.37913 -1.64332,-0.67919 -2.94534,-1.34179 -2.94534,-1.34179 0,0 2.4416,0.98067 4.56859,0.3678 1.30508,-0.38095 4.20058,2.39181 4.71079,2.97497 -0.0301,-0.20532 -0.17553,-3.48513 -0.0429,-3.69721 -0.84165,-0.27499 -2.81271,0.0794 -3.7302,-0.41732 -0.29504,-0.13285 -0.46069,-0.35444 -0.34797,-0.6994 0,0 3.18037,0.57645 4.42267,0.34454 1.32837,-0.25524 2.2957,-0.8913 1.9049,-1.73265 -0.073,0.98067 -1.40151,1.40467 -2.79601,1.13958 -1.3981,-0.27499 -3.18359,-1.12302 -3.18359,-1.12302 0,0 1.39453,-2.51111 3.4552,-0.89452 0,-1.176 0.18224,-2.299 0.5068,-2.59058 0.78177,-0.26517 1.63667,-0.74554 1.63667,-0.74554 -2.42525,-0.77503 -4.83354,0.78191 -5.37027,0.44403 -0.53654,-0.33466 -0.5466,-0.63611 -1.56037,-0.63611 -1.30523,0 -5.82047,1.87519 -5.82047,1.87519 -4.43933,0.25497 -5.80425,-3.26331 -5.80425,-3.26331 -1.74247,5.96975 3.18681,5.85392 3.18681,5.85392 -1.64642,0.23833 -3.13375,2.77944 -3.13375,2.77944 1.30185,-0.81486 3.21335,-0.60296 2.88205,-0.54998 -1.26205,0.23189 -1.95114,2.68017 -1.71595,2.43489 0.77838,-0.84135 1.91475,-0.85794 1.91475,-0.77179 0,0.91111 -1.14949,7.39101 -0.82498,8.11309 0.68587,1.54056 2.28939,2.6007 2.35539,4.22073 -5.35344,5.30715 -12.2873,-3.96232 -5.06841,-11.04176 -8.785671,-12.46299 -17.077831,-8.54396 -19.691681,-8.73261 2.22291,1.81537 6.28779,9.62694 -0.32467,12.63509 5.05548,1.30198 5.09512,8.40463 3.33936,10.98875 5.07523,-0.32798 9.266121,3.892536 9.660301,5.910106 3.13719,-0.9111 8.16615,-4.691026 11.30672,-3.71702 -0.8282,0.13581 -3.18021,3.99201 -3.18021,3.99201 -6.11227,10.41231 -13.284541,10.49175 -14.066491,8.62665 -0.47379,-1.39152 2.10692,-3.79651 0.99385,-7.94424 0,0 1.25883,-0.38095 3.1341,2.39528 0,0 0.66904,-1.13309 0.11916,-2.21975 -2.61388,-5.121526 -10.26302,-5.777476 -10.85281,-4.68091 1.98109,0.29136 2.29245,2.22946 2.29245,3.97201 -0.12936,1.36484 -0.5995,3.87596 -0.19887,4.46902 0.90439,-2.87551 3.68717,-3.52152 3.68717,-3.52152 0.0929,3.69704 -5.31705,4.87646 -4.33984,10.32274 0.26517,1.68291 1.11322,2.98487 2.47477,3.88607 3.27323,1.3616 6.5131,2.1997 11.856861,-0.51359 0,0 -0.68909,0.72549 -1.20269,3.75019 0,0 -1.71611,-0.2284 -3.574551,0.76856 2.567451,0.2948 2.246021,0.0929 2.693321,1.0369 1.71612,3.59128 -0.54998,3.83959 0.1028,5.07867 0,0.656 -0.59301,-1.04353 -0.72227,-0.52006 -1.185851,1.21908 -4.952601,0.26168 -5.307171,2.0141 0.40425,-0.15888 3.67404,-1.20246 5.569071,1.21259 -0.78518,2.78933 2.21609,4.80692 0.5233,7.20214 -0.5233,0.65598 2.8955,-1.94478 2.8955,-1.94478 -0.12936,-1.55046 0.2021,-3.0346 -0.64607,-4.53193 l 0.88467,0.0631 c 1.67274,1.57698 3.72695,2.13344 3.39551,4.85663 1.30865,-0.58313 1.77581,-1.31855 1.83874,-2.68017 -0.2547,-1.36141 -1.5073,-1.72258 -2.09706,-2.62697 0.58976,-0.52006 2.60062,-0.40739 3.59447,1.547 0.84502,-0.64258 0.32805,-1.88488 0.45747,-2.78608 -0.85166,-1.94803 -3.3989,-1.04356 -5.02572,-1.75248 -3.14381,-0.4604 -0.5299,-1.74255 -1.12004,-3.75019 -0.19512,-3.18687 3.66111,-3.29948 5.36039,-5.31705 -0.9078,-3.38241 -2.00079,-4.5089 -1.09334,-5.86041 -0.11943,0.23189 -0.49354,1.16286 0.27822,2.54085 0.89451,1.61335 4.09786,0.54008 4.09786,0.54008 0.51375,2.11685 -2.78262,8.76903 -1.11307,8.88165 0.0161,-2.98809 6.59609,-4.35297 10.19056,-5.12821 l -0.42755,1.14949 c -0.39743,1.16951 0,1.99773 0.5896,3.03141 0.31139,-2.68683 0.40425,-3.18045 1.26238,-3.87942 2.15673,-2.71978 5.30717,-3.54157 7.98705,-5.74449 0.71901,-0.52352 2.09057,-0.70892 2.21642,-1.68957 -0.91444,-0.58297 -2.21642,-0.18545 -3.32952,-0.31807 -1.04353,0.38764 -1.82529,1.94801 -2.93836,1.67967 1.17273,-1.3616 2.35198,-2.66015 3.91895,-3.23662 -0.45715,-1.22918 -1.89808,-0.19566 -2.5474,-0.98067 -0.98397,-0.24853 -1.17954,1.11312 -1.57037,1.75916 -0.71902,0.9111 -1.50404,2.52101 -2.68329,2.45816 0.39743,-1.09654 1.37789,-1.875 2.09691,-2.77623 l 0.58638,-1.44109 c -4.70091,-1.16286 -2.34877,4.21729 -4.5089,5.9665 -1.11307,0.12587 -2.28245,0.97726 -3.32936,0.45371 0.39437,-2.32552 1.24233,-4.46558 1.10982,-6.99672 -1.10982,-2.78932 -4.96605,-0.64582 -7.05954,-0.64582 2.41833,-2.84921 8.5537,-5.96328 9.96814,-12.413256 -2.6336,-0.86806 -3.47509,-2.01757 -4.45243,-3.7668 2.54431,3.49178 5.51587,3.13066 8.12648,3.97869 0,0 -2.82594,0.89452 -3.02476,2.143526 3.61438,-1.895026 3.84308,-0.450706 5.86706,-0.851466 2.2727,-0.43393 3.56809,1.381426 4.42283,3.637596 0.13903,-0.11595 0.24853,-0.84157 0.35119,-2.03757 -0.54999,-1.997536 -1.65997,-2.686636 -1.65997,-2.686636 1.51069,-0.85146 2.88222,0.88118 4.58169,2.173236 M 124.3664,87.781174 c 0.63603,1.06358 0.87125,1.46109 1.0304,3.24996 0,0 4.06488,-4.25693 6.68555,-10.52169 l 0.90442,-0.13903 c 2.9615,1.48755 4.01809,-0.46042 4.01809,-0.46042 -2.96831,1.35494 -3.81623,-1.78885 -3.51438,-2.3886 0.65257,-2.34551 1.20915,-4.7341 5.52573,-3.92249 -0.15218,-1.70597 -1.10644,-1.69604 -2.51764,-1.69604 -1.1501,-0.0628 -2.41508,0.80496 -3.3096,1.8849 l 0.14896,-1.79877 c 0.78875,-0.70568 2.4416,-1.07673 2.90506,-1.91158 -1.44389,-0.52997 -2.26594,0.16237 -3.70365,0.61286 -1.85522,0.67251 -1.5207,1.84205 -2.24248,2.69005 0,0 -0.67243,-1.54037 1.1231,-2.80269 0,0 -1.64657,-0.93094 -2.6139,1.02375 -1.50731,2.88538 0.32091,4.07148 0.71547,6.27126 -0.72871,2.27594 -1.67003,3.20345 -5.15497,9.90861"
         inkscape:connector-curvature="0"
         style="fill:#000000;fill-rule:nonzero" />
    </g>
    <g
       id="g4437"
       transform="translate(-14.968781,-1.7487564)">
      <circle
         r="79.489166"
         cy="103.00257"
         cx="310.28488"
         id="path4242-9"
         style="fill:#ffcc00;fill-opacity:1" />
      <text
         transform="matrix(0.8660254,-0.5,0.5,0.8660254,0,0)"
         sodipodi:linespacing="125%"
         id="text3604-8"
         y="273.26114"
         x="136.532"
         style="font-style:normal;font-weight:normal;font-size:107.81195068px;line-height:125%;font-family:sans-serif;letter-spacing:0px;word-spacing:0px;fill:#000000;fill-opacity:1;stroke:none;stroke-width:1px;stroke-linecap:butt;stroke-linejoin:miter;stroke-opacity:1"
         xml:space="preserve"><tspan
           style="font-style:normal;font-variant:normal;font-weight:normal;font-stretch:normal;font-family:'Ubuntu Mono';-inkscape-font-specification:'Ubuntu Mono'"
           y="273.26114"
           x="136.532"
           id="tspan3606-7"
           sodipodi:role="line">{ }</tspan></text>
      <path
         id="path5782-3"
         d="m 299.96188,74.842894 c 0.95241,-1.40593 1.55172,-1.11309 1.55172,-1.11309 0,0 0.78389,1.06381 0.47809,1.19691 -0.99989,0.39029 -2.86408,1.82725 -2.86408,1.82725 0,0 -0.11648,-0.50199 0.8343,-1.9111 m 36.142,11.89071 c -0.29115,-1.06162 -1.13402,-2.40862 -2.11421,-2.61603 -0.98765,-0.22061 -4.27374,0.70335 -4.27374,0.70335 -1.59255,-1.17059 3.80886,-2.07305 3.80886,-2.07305 -1.26457,-2.52869 -4.75381,-1.25733 -6.09431,0.28151 -0.8366,7.29603 -8.81117,5.5173 -9.8215,3.76737 -3.96828,-6.09058 -10.59078,-6.60336 -12.59788,-6.33962 -2.00224,0.26517 -3.65931,0.35286 -3.65931,0.35286 0,0 2.9587,-0.42199 4.70289,-2.23285 1.06744,-1.11591 5.4904,-0.0327 6.32349,0.25095 -0.14627,-0.18493 -2.15195,-3.32858 -2.14197,-3.61248 -0.98411,0.20746 -2.72169,1.67558 -3.90637,1.70798 -0.36565,0.0368 -0.65441,-0.087 -0.73946,-0.49038 0,0 3.45587,-1.23918 4.54615,-2.17286 1.16178,-1.00541 1.75205,-2.18053 0.88982,-2.78621 0.48509,1.00614 -0.5809,2.17772 -2.10319,2.70892 -1.53146,0.52352 -3.76943,0.70337 -3.76943,0.70337 0,0 -0.0545,-3.26212 2.89078,-2.84223 -0.66792,-1.15681 -1.12638,-2.365 -0.97275,-2.83616 0.61845,-0.70474 1.18658,-1.66286 1.18658,-1.66286 -2.82586,0.61499 -4.31065,3.51424 -5.03047,3.48671 -0.71783,-0.0242 -0.89894,-0.31531 -1.89617,0.26034 -1.28393,0.74129 -4.66052,5.15019 -4.66052,5.15019 -4.22204,2.77207 -7.56288,0.0864 -7.56288,0.0864 1.67636,6.86193 6.45945,3.9485 6.45945,3.9485 -1.4842,1.16954 -1.50411,4.51384 -1.50411,4.51384 0.81781,-1.54091 2.81847,-2.41806 2.52268,-2.1778 -1.10977,0.9449 -0.39717,3.74456 -0.30508,3.3697 0.28776,-1.2697 1.39624,-1.93139 1.44517,-1.84664 0.51743,0.89624 3.06681,7.92323 3.79611,8.44922 1.54961,1.1259 3.72907,1.25805 4.71406,2.81415 -2.25204,8.260936 -14.33716,3.08067 -11.25666,-7.98307 -15.72039,-7.26997 -21.65149,1.29447 -24.32981,2.59337 3.2176,0.52328 11.65256,5.89884 6.85643,12.613286 5.71239,-1.5904 9.78521,5.37381 9.52568,8.91291 4.80617,-3.20498 11.32563,-1.43347 12.85919,0.32731 2.56854,-2.67795 5.36874,-9.25227 9.0112,-10.07779 -0.73751,0.60404 -0.86111,5.73301 -0.86111,5.73301 -0.099,13.71371 -7.1092,17.8652 -8.93766,16.47464 -1.25633,-1.09973 -0.0835,-4.93113 -3.53413,-8.37903 0,0 1.02197,-1.08966 4.44333,0.57623 0,0 0.0161,-1.49455 -1.14342,-2.2512 -5.47991,-3.55346 -13.37675,0.14547 -13.33419,1.55911 2.11427,-0.83851 3.52125,0.89113 4.51089,2.60523 0.64789,1.41605 1.61155,4.15318 2.34245,4.50904 -0.74346,-3.34221 1.62701,-5.5581 1.62701,-5.5581 2.19101,3.58398 -2.46079,7.8166 1.59357,12.61901 1.21664,1.50487 2.79026,2.30394 4.6414,2.41718 3.99311,-0.51961 7.6561,-1.53519 11.37169,-7.23908 0,0 -0.26597,1.10502 0.94678,4.37203 0,0 -1.81784,0.74991 -3.07975,2.78613 2.693,-1.16814 2.26212,-1.1843 3.23829,-0.50965 3.72772,2.55803 1.63959,4.08927 2.98543,4.93741 0.37256,0.64529 -1.17597,-0.6897 -1.00584,-0.10145 -0.47414,1.87267 -4.72319,3.07009 -4.07666,4.99533 0.30736,-0.38591 2.93114,-3.26944 6.16683,-1.97003 0.81177,3.18973 4.90993,3.46991 4.60509,6.78742 -0.14252,0.94245 1.74373,-3.55748 1.74373,-3.55748 -1.00781,-1.4517 -1.52464,-3.09988 -3.20933,-4.09107 l 0.90598,-0.44051 c 2.54104,0.60125 4.87778,-0.0188 6.09831,2.84896 0.95608,-1.31683 0.99798,-2.30555 0.28656,-3.6807 -1.02375,-1.19455 -2.46103,-0.83843 -3.55478,-1.39314 0.28471,-0.8465 2.32681,-1.87771 4.41438,-0.51963 0.4663,-1.11202 -0.74774,-2.04043 -1.13226,-3.00044 -1.94414,-1.43256 -3.93613,0.90381 -5.93899,1.13038 -3.35399,1.33259 -1.51093,-1.41318 -3.23161,-3.05288 -2.00187,-3.02406 1.72747,-5.32489 2.25319,-8.2746 -2.81394,-2.81166 -4.52884,-3.29903 -4.4038,-5.14384 0.0134,0.29593 0.17499,1.42416 1.71673,2.34139 1.79618,1.07898 4.33772,-1.79604 4.33772,-1.79604 1.70758,1.79053 2.24297,10.20626 3.94923,9.36885 -1.68119,-2.94848 4.01627,-8.02803 7.11178,-10.83204 l 0.23242,1.37354 c 0.27306,1.37615 1.13457,1.96516 2.30161,2.64711 -1.21965,-2.81984 -1.40862,-3.35813 -0.96148,-4.53306 0.5769,-3.90027 3.20922,-6.49786 4.59427,-10.18683 0.40994,-0.92331 1.6538,-1.88463 1.2207,-2.92075 -1.23063,-0.0542 -2.28551,1.0764 -3.45582,1.57805 -0.80633,0.97396 -0.68917,2.95286 -1.93652,3.32103 0.38031,-2.00541 0.80286,-3.9525 2.01687,-5.40948 -1.14777,-0.94948 -1.97817,0.88563 -3.06281,0.48206 -1.10904,0.31439 -0.52811,1.76485 -0.54564,2.62233 -0.19002,1.30459 -0.048,3.33405 -1.24348,3.94195 -0.23189,-1.30435 0.29056,-2.62695 0.486,-3.92182 l -0.24182,-1.7506 c -5.2846,1.5259 0.0848,5.4824 -1.04677,8.42986 -1.02351,0.75587 -1.69016,2.25759 -3.01735,2.33717 -0.93279,-2.51157 -1.31406,-5.09828 -2.88192,-7.51286 -2.67585,-2.11349 -5.25178,2.18507 -7.31116,3.37404 0.76075,-4.17615 5.0274,-10.723866 2.75564,-17.871876 -3.08359,0.6418 -4.56419,-0.0107 -6.51904,-1.17668 4.4859,1.98982 7.20386,-0.0531 10.2535,-0.70149 0,0 -2.27181,2.48486 -1.75803,3.82638 2.47914,-3.9168 3.52436,-2.62592 5.28774,-4.16962 1.98917,-1.71759 4.29443,-0.66754 6.41654,1.06636 0.0706,-0.19297 -0.2335,-0.96897 -0.81172,-2.20375 -1.67548,-1.65261 -3.15871,-1.70006 -3.15871,-1.70006 1.00246,-1.69553 3.33563,-0.77009 5.74118,-0.46429 m -21.82127,-4.06485 c 1.22971,0.68501 1.68683,0.94245 2.85935,2.61173 0,0 1.5809,-6.49603 0.60084,-14.1469 l 0.8107,-0.65049 c 3.75797,-0.21874 3.69101,-2.7349 3.69101,-2.7349 -2.15034,3.01861 -4.76988,0.40769 -4.81358,-0.35368 -0.69019,-2.67787 -1.49922,-5.34357 3.20788,-6.99672 -1.11857,-1.59171 -2.05163,-1.03999 -3.43979,-0.2386 -1.16707,0.59132 -1.91854,2.16341 -2.18513,3.73376 l -0.87506,-1.85401 c 0.37513,-1.14211 1.79027,-2.44581 1.77202,-3.53027 -1.72126,0.29872 -2.13673,1.4466 -3.29516,2.70629 -1.44297,1.71517 -0.44969,2.67563 -0.67811,3.91973 0,0 -1.53624,-1.13336 -0.48694,-3.39482 0,0 -2.14839,0.0188 -1.98982,2.49158 0.1562,3.69433 2.62797,3.82276 4.26542,5.76258 0.57575,2.65266 0.1766,4.09963 0.5565,12.67456"
         inkscape:connector-curvature="0"
         style="fill:#000000;fill-rule:nonzero" />
    </g>
    <g
       id="g4431"
       transform="translate(-26.263905,1.7487564)">
      <circle
         r="79.489166"
         cy="99.505058"
         cx="505.49536"
         id="path4242-9-3"
         style="fill:#ffcc00;fill-opacity:1" />
      <text
         transform="matrix(0.8660254,-0.5,0.5,0.8660254,0,0)"
         sodipodi:linespacing="125%"
         id="text3604-8-2"
         y="367.83746"
         x="307.33801"
         style="font-style:normal;font-weight:normal;font-size:107.81195068px;line-height:125%;font-family:sans-serif;letter-spacing:0px;word-spacing:0px;fill:#000000;fill-opacity:1;stroke:none;stroke-width:1px;stroke-linecap:butt;stroke-linejoin:miter;stroke-opacity:1"
         xml:space="preserve"><tspan
           style="font-style:normal;font-variant:normal;font-weight:bold;font-stretch:normal;font-family:'Ubuntu Mono';-inkscape-font-specification:'Ubuntu Mono Bold'"
           y="367.83746"
           x="307.33801"
           id="tspan3606-7-0"
           sodipodi:role="line">{ }</tspan></text>
      <path
         id="path5782-3-5"
         d="m 495.17239,71.345384 c 0.95241,-1.40593 1.55172,-1.11309 1.55172,-1.11309 0,0 0.78389,1.06381 0.47809,1.19691 -0.99989,0.39029 -2.86408,1.82725 -2.86408,1.82725 0,0 -0.11648,-0.50199 0.8343,-1.9111 m 36.14201,11.89071 c -0.29115,-1.06162 -1.13402,-2.40862 -2.11421,-2.61603 -0.98765,-0.22061 -4.27374,0.70335 -4.27374,0.70335 -1.59255,-1.17059 3.80886,-2.07305 3.80886,-2.07305 -1.26457,-2.52869 -4.75381,-1.25733 -6.09431,0.28151 -0.8366,7.29603 -8.81118,5.5173 -9.82151,3.76737 -3.96828,-6.09058 -10.59078,-6.60336 -12.59788,-6.33962 -2.00224,0.26517 -3.65931,0.35286 -3.65931,0.35286 0,0 2.9587,-0.42199 4.70289,-2.23285 1.06744,-1.11591 5.4904,-0.0327 6.32349,0.25095 -0.14627,-0.18493 -2.15195,-3.32858 -2.14197,-3.61248 -0.98411,0.20746 -2.72169,1.67558 -3.90637,1.70798 -0.36565,0.0368 -0.65441,-0.087 -0.73946,-0.49038 0,0 3.45587,-1.23918 4.54615,-2.17286 1.16178,-1.00541 1.75205,-2.18053 0.88982,-2.78621 0.48509,1.00614 -0.5809,2.17772 -2.10319,2.70892 -1.53146,0.52352 -3.76943,0.70337 -3.76943,0.70337 0,0 -0.0545,-3.26212 2.89078,-2.84223 -0.66792,-1.15681 -1.12638,-2.365 -0.97275,-2.83616 0.61845,-0.70474 1.18658,-1.66286 1.18658,-1.66286 -2.82586,0.61499 -4.31065,3.51424 -5.03047,3.48671 -0.71783,-0.0242 -0.89894,-0.31531 -1.89617,0.26034 -1.28393,0.74129 -4.66052,5.15019 -4.66052,5.15019 -4.22204,2.77207 -7.56288,0.0864 -7.56288,0.0864 1.67636,6.86193 6.45945,3.9485 6.45945,3.9485 -1.4842,1.16954 -1.50411,4.51384 -1.50411,4.51384 0.81781,-1.54091 2.81847,-2.41806 2.52268,-2.1778 -1.10977,0.9449 -0.39717,3.74456 -0.30508,3.3697 0.28776,-1.2697 1.39624,-1.93139 1.44517,-1.84664 0.51743,0.89624 3.06681,7.92323 3.79611,8.44922 1.54961,1.1259 3.72907,1.25805 4.71406,2.81415 -2.25204,8.260936 -14.33716,3.08067 -11.25666,-7.98307 -15.72039,-7.26997 -21.65149,1.29447 -24.32981,2.59337 3.2176,0.52328 11.65256,5.89884 6.85643,12.613286 5.71239,-1.5904 9.78521,5.37381 9.52568,8.91291 4.80617,-3.20498 11.32563,-1.43347 12.85919,0.32731 2.56854,-2.67795 5.36874,-9.25227 9.0112,-10.07779 -0.73751,0.60404 -0.86111,5.73301 -0.86111,5.73301 -0.099,13.71371 -7.1092,17.86521 -8.93766,16.47465 -1.25633,-1.09974 -0.0835,-4.93114 -3.53413,-8.37904 0,0 1.02197,-1.08966 4.44333,0.57623 0,0 0.0161,-1.49455 -1.14342,-2.2512 -5.47991,-3.55346 -13.37675,0.14547 -13.33419,1.55911 2.11427,-0.83851 3.52125,0.89113 4.51089,2.60523 0.64789,1.41605 1.61155,4.15318 2.34245,4.50904 -0.74346,-3.34221 1.62701,-5.5581 1.62701,-5.5581 2.19101,3.58398 -2.46079,7.81661 1.59357,12.61902 1.21664,1.50487 2.79026,2.30394 4.6414,2.41718 3.99311,-0.51961 7.6561,-1.53519 11.37169,-7.23908 0,0 -0.26597,1.10502 0.94678,4.37203 0,0 -1.81784,0.74991 -3.07975,2.78613 2.693,-1.16814 2.26212,-1.1843 3.23829,-0.50965 3.72772,2.55803 1.63959,4.08927 2.98543,4.93741 0.37256,0.64529 -1.17597,-0.6897 -1.00584,-0.10145 -0.47414,1.87267 -4.72319,3.07009 -4.07666,4.99533 0.30736,-0.38591 2.93114,-3.26944 6.16683,-1.97003 0.81177,3.18973 4.90993,3.46991 4.60509,6.78742 -0.14252,0.94245 1.74373,-3.55748 1.74373,-3.55748 -1.00781,-1.4517 -1.52464,-3.09988 -3.20933,-4.09107 l 0.90598,-0.44051 c 2.54104,0.60125 4.87779,-0.0188 6.09832,2.84896 0.95608,-1.31683 0.99798,-2.30555 0.28656,-3.6807 -1.02375,-1.19455 -2.46103,-0.83843 -3.55479,-1.39314 0.28471,-0.8465 2.32682,-1.87771 4.41439,-0.51963 0.4663,-1.11202 -0.74774,-2.04043 -1.13226,-3.00044 -1.94414,-1.43256 -3.93614,0.90381 -5.939,1.13038 -3.35399,1.33259 -1.51093,-1.41318 -3.23161,-3.05288 -2.00187,-3.02406 1.72747,-5.32489 2.25319,-8.27461 -2.81394,-2.81166 -4.52884,-3.29903 -4.4038,-5.14384 0.0134,0.29593 0.17499,1.42416 1.71673,2.34139 1.79618,1.07898 4.33772,-1.79604 4.33772,-1.79604 1.70758,1.79053 2.24297,10.20627 3.94924,9.36886 -1.6812,-2.94848 4.01627,-8.02804 7.11178,-10.83205 l 0.23242,1.37354 c 0.27306,1.37615 1.13457,1.96516 2.30161,2.64711 -1.21965,-2.81984 -1.40862,-3.35813 -0.96148,-4.53306 0.5769,-3.90027 3.20922,-6.49786 4.59427,-10.18683 0.40994,-0.92331 1.6538,-1.88463 1.2207,-2.92075 -1.23063,-0.0542 -2.28551,1.0764 -3.45582,1.57805 -0.80633,0.97396 -0.68917,2.95286 -1.93652,3.32103 0.38031,-2.00541 0.80286,-3.9525 2.01687,-5.40948 -1.14777,-0.94948 -1.97817,0.88563 -3.06281,0.48206 -1.10904,0.31439 -0.52811,1.76485 -0.54564,2.62233 -0.19002,1.30459 -0.048,3.33405 -1.24348,3.94195 -0.23189,-1.30435 0.29056,-2.62695 0.486,-3.92182 l -0.24182,-1.7506 c -5.2846,1.5259 0.0848,5.4824 -1.04677,8.42986 -1.02351,0.75587 -1.69016,2.25759 -3.01735,2.33717 -0.93279,-2.51157 -1.31406,-5.09828 -2.88192,-7.51286 -2.67586,-2.11349 -5.25179,2.18507 -7.31117,3.37404 0.76075,-4.17615 5.0274,-10.723866 2.75564,-17.871876 -3.08359,0.6418 -4.56419,-0.0107 -6.51904,-1.17668 4.4859,1.98982 7.20386,-0.0531 10.2535,-0.70149 0,0 -2.27181,2.48486 -1.75803,3.82638 2.47915,-3.9168 3.52437,-2.62592 5.28775,-4.16962 1.98917,-1.71759 4.29443,-0.66754 6.41654,1.06636 0.0706,-0.19297 -0.2335,-0.96897 -0.81172,-2.20375 -1.67548,-1.65261 -3.15871,-1.70006 -3.15871,-1.70006 1.00246,-1.69553 3.33563,-0.77009 5.74118,-0.46429 m -21.82128,-4.06485 c 1.22971,0.68501 1.68683,0.94245 2.85935,2.61173 0,0 1.5809,-6.49603 0.60084,-14.1469 l 0.8107,-0.65049 c 3.75797,-0.21874 3.69101,-2.7349 3.69101,-2.7349 -2.15034,3.01861 -4.76988,0.40769 -4.81358,-0.35368 -0.69019,-2.67787 -1.49922,-5.34357 3.20788,-6.99672 -1.11857,-1.59171 -2.05163,-1.03999 -3.43979,-0.2386 -1.16707,0.59132 -1.91854,2.16341 -2.18513,3.73376 l -0.87506,-1.85401 c 0.37513,-1.14211 1.79027,-2.44581 1.77202,-3.53027 -1.72126,0.29872 -2.13673,1.4466 -3.29516,2.70629 -1.44297,1.71517 -0.44969,2.67563 -0.67811,3.91973 0,0 -1.53624,-1.13336 -0.48694,-3.39482 0,0 -2.14839,0.0188 -1.98982,2.49158 0.1562,3.69433 2.62797,3.82276 4.26542,5.76258 0.57575,2.65266 0.1766,4.09963 0.5565,12.67456"
         inkscape:connector-curvature="0"
         style="fill:#000000;fill-rule:nonzero" />
    </g>
  </g>
</svg>
