<?xml version="1.0" standalone="no"?>
<!DOCTYPE svg PUBLIC "-//W3C//DTD SVG 20010904//EN"
 "http://www.w3.org/TR/2001/REC-SVG-20010904/DTD/svg10.dtd">
<svg version="1.0" xmlns="http://www.w3.org/2000/svg"
 width="851.000000pt" height="315.000000pt" viewBox="0 0 851.000000 315.000000"
 preserveAspectRatio="xMidYMid meet">
<metadata>
Created by potrace 1.14, written by Peter Selinger 2001-2017
</metadata>
<g transform="translate(0.000000,315.000000) scale(0.100000,-0.100000)"
fill="#000000" stroke="none">
<path d="M1710 2680 c-95 -26 -205 -89 -280 -160 -285 -274 -261 -746 50 -985
69 -53 180 -107 259 -125 84 -20 225 -15 317 10 357 96 561 472 450 826 -62
194 -215 353 -408 422 -102 36 -279 41 -388 12z m-90 -270 c0 -29 -2 -30 -43
-30 -76 0 -81 -10 -87 -158 -4 -106 -8 -134 -23 -150 -17 -19 -17 -21 2 -53
18 -29 21 -51 21 -139 0 -137 8 -154 78 -158 50 -3 52 -4 52 -33 0 -28 -2 -29
-45 -29 -57 0 -110 21 -126 52 -8 14 -16 74 -19 151 -4 112 -8 130 -24 143
-11 8 -30 14 -43 14 -19 0 -23 5 -23 30 0 27 3 30 29 30 50 0 61 29 61 153 0
107 13 165 41 182 19 12 69 23 112 24 35 1 37 -1 37 -29z m668 9 c35 -22 46
-59 50 -184 4 -130 14 -155 59 -155 19 0 23 -5 23 -30 0 -25 -4 -30 -24 -30
-43 0 -56 -33 -56 -145 0 -173 -22 -207 -133 -209 -60 -1 -62 0 -65 27 -3 26
-2 27 45 27 76 0 77 3 84 145 5 108 9 130 28 155 l22 30 -22 29 c-18 25 -22
47 -27 148 -5 141 -12 153 -84 153 -44 0 -48 2 -48 23 0 13 3 27 8 31 11 12
115 0 140 -15z m-234 -41 c-6 -10 -4 -10 7 0 7 6 20 12 29 11 10 0 11 -2 3 -6
-23 -9 -13 -20 15 -16 24 3 25 3 5 -6 -26 -12 -39 -47 -23 -65 8 -11 7 -14 -3
-12 -14 1 -87 -96 -87 -115 0 -5 11 -16 25 -25 23 -15 27 -15 51 1 14 9 33 14
42 10 15 -6 15 -8 -3 -15 -19 -7 -19 -7 3 -14 12 -4 22 -15 22 -24 0 -12 -3
-13 -12 -4 -18 18 -27 14 -21 -10 4 -20 3 -21 -7 -5 -8 12 -24 17 -53 17 -31
0 -38 3 -27 10 13 8 12 10 -3 10 -10 0 -22 -11 -27 -25 -5 -14 -27 -41 -47
-60 l-38 -35 34 0 34 0 -7 -41 c-6 -35 -4 -40 11 -37 9 2 20 14 23 27 3 14 11
26 18 29 13 4 16 -9 5 -24 -5 -5 -1 -1 9 8 20 22 25 22 45 2 10 -9 12 -18 6
-22 -5 -4 -26 -18 -47 -31 -21 -13 -41 -33 -46 -45 -7 -17 -9 -18 -9 -3 -1 22
-18 22 -64 -2 -41 -21 -41 -20 -28 27 9 28 7 32 -10 32 -10 0 -19 -6 -19 -14
0 -7 -12 -21 -26 -30 -34 -23 -30 -68 6 -76 14 -3 27 -14 29 -25 3 -17 1 -18
-13 -5 -16 12 -17 11 -11 -13 5 -17 3 -27 -4 -27 -6 0 -11 4 -11 10 0 5 -8 14
-19 19 -15 9 -17 7 -14 -13 3 -15 -1 -25 -10 -29 -12 -4 -17 4 -22 34 -5 31
-11 39 -28 40 -19 0 -18 2 6 11 29 10 39 52 15 61 -8 3 -6 6 5 6 9 1 17 7 17
14 0 9 -15 13 -48 13 -28 -1 -56 5 -65 13 -23 18 -21 67 3 98 22 28 19 43 -4
24 -11 -10 -14 -5 -18 29 -2 22 0 40 4 40 16 0 56 -19 71 -35 21 -21 23 -42 2
-25 -12 10 -15 10 -15 -3 0 -8 -3 -29 -6 -46 -5 -26 -3 -31 12 -31 32 0 80 36
113 84 17 24 31 47 31 50 0 3 -23 -3 -52 -14 -51 -19 -52 -19 -65 0 -7 10 -28
23 -46 29 -30 10 -33 14 -29 45 3 25 -2 40 -16 54 -18 18 -19 22 -5 33 15 13
14 55 -2 92 -6 15 -1 17 34 17 48 0 86 -17 120 -54 23 -25 23 -26 7 -61 -15
-30 -15 -39 -4 -63 15 -31 55 -42 64 -18 4 9 1 23 -6 31 -8 9 -10 28 -6 50 4
20 3 35 -3 35 -5 0 -8 11 -6 25 1 14 -2 25 -6 25 -5 0 -9 9 -9 20 0 18 3 19
21 10 12 -7 33 -9 47 -5 30 8 102 14 102 9 0 -2 -10 -12 -22 -24 -15 -14 -18
-20 -7 -20 12 0 12 -2 -1 -10 -13 -8 -12 -10 3 -10 9 0 17 -8 17 -17 0 -13 -3
-14 -12 -5 -7 7 -21 12 -31 12 -16 0 -14 -5 13 -30 18 -17 34 -29 35 -28 19
22 45 95 41 113 -7 27 1 55 16 55 5 0 6 -6 2 -12z"/>
<path d="M3280 2381 l-25 -7 -3 -266 -2 -266 50 -11 c105 -23 186 -2 228 57
68 95 42 260 -48 307 -33 17 -97 20 -134 5 l-26 -10 0 100 c0 55 -3 100 -7 99
-5 -1 -19 -4 -33 -8z m172 -242 c44 -23 62 -127 34 -194 -16 -38 -60 -65 -105
-65 -60 0 -61 1 -61 130 0 111 1 117 23 128 29 14 83 15 109 1z"/>
<path d="M4574 2325 c-45 -20 -99 -88 -115 -143 -29 -106 -5 -247 53 -309 48
-51 157 -66 240 -34 23 9 26 14 19 33 -6 15 -16 22 -27 20 -84 -14 -114 -13
-146 2 -68 32 -101 140 -78 252 17 79 68 134 127 134 22 0 55 -5 73 -11 34
-12 53 -1 47 30 -6 35 -134 52 -193 26z"/>
<path d="M6155 2326 c-48 -21 -68 -51 -72 -109 -6 -77 16 -106 121 -156 47
-22 90 -49 95 -60 13 -23 14 -71 3 -87 -23 -35 -122 -46 -185 -19 -34 14 -35
14 -41 -11 -4 -14 -4 -29 -1 -33 10 -17 108 -34 160 -28 71 7 113 31 131 72
37 90 5 151 -108 210 -43 22 -85 48 -95 57 -24 25 -21 77 6 100 26 20 93 24
138 7 23 -8 30 -7 40 8 7 9 12 22 10 28 -10 31 -147 45 -202 21z"/>
<path d="M2946 2303 c-17 -33 -86 -252 -120 -380 l-25 -93 34 0 c33 0 34 1 47
63 l14 62 97 3 96 3 7 -28 c23 -104 22 -103 59 -103 19 0 35 2 35 5 0 13 -111
388 -130 438 -21 56 -22 57 -60 57 -33 0 -42 -5 -54 -27z m100 -187 c13 -44
24 -83 24 -88 0 -4 -34 -8 -75 -8 -52 0 -75 4 -75 12 0 7 17 63 37 125 l38
114 13 -38 c8 -21 25 -74 38 -117z"/>
<path d="M3740 2199 c-44 -18 -80 -62 -96 -117 -49 -168 83 -299 254 -252 39
10 43 14 40 38 -3 23 -7 26 -28 22 -48 -9 -127 -5 -153 9 -24 13 -57 65 -57
90 0 7 44 11 136 11 l137 0 -6 49 c-13 112 -60 161 -152 160 -27 0 -61 -5 -75
-10z m111 -54 c16 -9 34 -27 39 -41 20 -52 17 -54 -84 -54 -52 0 -97 4 -100 8
-10 16 27 71 57 86 40 20 51 20 88 1z"/>
<path d="M4133 2197 l-43 -10 0 -178 0 -179 35 0 35 0 0 154 c0 131 2 155 16
160 9 3 51 6 94 6 75 0 78 1 82 24 3 16 0 27 -9 30 -23 9 -164 5 -210 -7z"/>
<path d="M4929 2187 c-71 -48 -101 -134 -79 -228 31 -126 173 -179 265 -98 97
86 81 281 -28 332 -51 24 -117 22 -158 -6z m132 -47 c35 -19 51 -67 47 -138
-4 -58 -7 -68 -37 -94 -28 -25 -39 -29 -70 -24 -21 3 -45 16 -58 30 -43 51
-39 170 8 217 21 21 78 26 110 9z"/>
<path d="M5268 2204 c-16 -5 -18 -23 -18 -190 l0 -184 30 0 30 0 2 163 c3 153
4 162 23 165 41 5 50 -13 54 -103 l3 -86 27 3 c26 3 26 4 27 88 2 77 4 85 24
94 18 8 26 6 41 -13 17 -20 19 -41 19 -167 l0 -144 30 0 30 0 0 145 c0 202
-21 245 -114 231 -47 -7 -60 -8 -136 -2 -30 3 -63 2 -72 0z"/>
<path d="M5705 2202 l-30 -7 0 -245 0 -245 33 -3 32 -3 0 71 c0 70 1 71 23 63
42 -15 114 -9 144 13 109 81 110 257 0 338 -21 16 -45 21 -100 23 -40 1 -85
-1 -102 -5z m164 -68 c47 -33 65 -122 37 -189 -20 -46 -57 -69 -102 -62 -61
10 -64 17 -64 148 l0 119 53 0 c32 0 61 -6 76 -16z"/>
<path d="M6539 2187 c-53 -36 -79 -90 -79 -168 0 -88 29 -144 91 -177 53 -28
109 -26 163 8 51 31 77 86 77 163 1 93 -27 149 -93 183 -43 22 -119 18 -159
-9z m154 -66 c44 -53 43 -165 -3 -211 -44 -44 -118 -32 -147 23 -24 47 -15
158 17 192 35 37 99 36 133 -4z"/>
<path d="M6985 2198 c-42 -15 -93 -65 -106 -106 -6 -19 -9 -62 -7 -97 8 -124
98 -189 241 -171 66 9 81 18 72 45 -6 19 -11 20 -65 14 -76 -8 -144 16 -165
57 -22 42 -19 118 5 158 26 43 60 55 143 50 64 -3 68 -2 74 20 3 12 2 26 -2
30 -11 12 -158 12 -190 0z"/>
</g>
</svg>
