<?xml version="1.0" standalone="no"?>
<!DOCTYPE svg PUBLIC "-//W3C//DTD SVG 20010904//EN"
 "http://www.w3.org/TR/2001/REC-SVG-20010904/DTD/svg10.dtd">
<svg version="1.0" xmlns="http://www.w3.org/2000/svg"
 width="851.000000pt" height="315.000000pt" viewBox="0 0 851.000000 315.000000"
 preserveAspectRatio="xMidYMid meet">
<metadata>
Created by potrace 1.14, written by Peter Selinger 2001-2017
</metadata>
<g transform="translate(0.000000,315.000000) scale(0.100000,-0.100000)"
fill="#000000" stroke="none">
<path d="M0 1575 l0 -1575 4255 0 4255 0 0 1575 0 1575 -4255 0 -4255 0 0
-1575z m2098 1093 c92 -33 181 -91 254 -165 191 -195 240 -495 119 -738 -114
-230 -331 -366 -586 -367 -110 -1 -175 13 -271 57 -172 78 -287 205 -351 387
-23 64 -27 90 -27 203 -1 110 2 141 22 200 70 209 246 379 452 435 109 29 286
24 388 -12z m1222 -378 l0 -100 26 10 c45 17 108 12 144 -12 52 -36 75 -90 75
-174 -1 -61 -5 -78 -29 -114 -47 -71 -123 -93 -236 -69 l-50 11 2 266 3 266
25 7 c14 4 28 7 33 8 4 1 7 -44 7 -99z m1410 37 c36 -12 47 -32 31 -56 -7 -11
-15 -11 -41 -2 -18 6 -51 11 -73 11 -32 0 -46 -7 -77 -38 -89 -89 -72 -300 28
-348 32 -15 62 -16 146 -2 11 2 21 -5 27 -20 7 -19 4 -24 -19 -33 -83 -32
-192 -17 -240 34 -58 61 -82 206 -53 309 16 55 70 123 115 143 39 17 110 18
156 2z m1589 0 c40 -14 46 -26 28 -50 -10 -15 -17 -16 -40 -8 -45 17 -112 13
-138 -7 -27 -23 -30 -75 -6 -100 10 -9 52 -35 95 -57 111 -58 142 -114 111
-203 -22 -64 -133 -98 -238 -72 -58 14 -64 19 -55 54 6 25 7 25 41 11 63 -27
162 -16 185 19 11 16 10 64 -3 87 -5 11 -48 38 -95 60 -105 50 -127 79 -121
156 4 58 24 88 72 109 37 16 119 17 164 1z m-3259 -54 c19 -50 130 -425 130
-438 0 -3 -16 -5 -35 -5 -37 0 -36 -1 -59 103 l-7 28 -96 -3 -97 -3 -14 -62
c-13 -62 -14 -63 -47 -63 l-34 0 25 93 c34 128 103 347 120 380 12 22 21 27
54 27 38 0 39 -1 60 -57z m838 -83 c38 -23 58 -64 68 -138 l7 -52 -137 0 c-92
0 -136 -4 -136 -11 0 -6 7 -26 16 -44 27 -58 100 -77 204 -53 10 2 16 -6 18
-24 3 -23 -2 -29 -25 -35 -55 -15 -146 -9 -188 13 -128 67 -118 300 15 353 44
17 122 13 158 -9z m445 14 c9 -3 12 -14 9 -30 -4 -23 -7 -24 -82 -24 -43 0
-85 -3 -94 -6 -14 -5 -16 -29 -16 -160 l0 -154 -35 0 -35 0 0 179 0 180 43 9
c47 11 187 15 210 6z m744 -11 c107 -50 126 -243 32 -327 -125 -113 -301 8
-274 188 19 123 136 190 242 139z m328 7 c11 0 39 2 61 6 93 14 114 -29 114
-231 l0 -145 -30 0 -30 0 0 144 c0 126 -2 147 -19 167 -15 19 -23 21 -41 13
-20 -9 -22 -17 -24 -94 -1 -84 -1 -85 -27 -88 l-27 -3 -3 86 c-4 90 -13 108
-54 103 -19 -3 -20 -12 -23 -165 l-2 -163 -30 0 -30 0 0 184 c0 210 -6 198 90
190 30 -2 64 -4 75 -4z m468 -4 c125 -52 143 -269 30 -346 -37 -26 -93 -32
-145 -17 l-28 7 0 -70 0 -71 -32 3 -33 3 0 245 0 245 30 6 c54 12 145 9 178
-5z m815 0 c66 -34 94 -90 94 -184 -1 -82 -33 -141 -95 -171 -54 -26 -89 -26
-141 -1 -64 31 -90 79 -94 169 -2 64 1 82 20 116 33 56 80 85 140 85 27 0 61
-6 76 -14z m477 2 c4 -4 5 -18 2 -30 -6 -22 -10 -23 -74 -20 -83 5 -117 -7
-143 -50 -24 -40 -27 -116 -5 -158 21 -41 89 -65 165 -57 54 6 59 5 65 -14 9
-27 -6 -36 -73 -45 -91 -11 -164 14 -208 71 -22 30 -29 50 -32 100 -2 35 1 78
7 97 13 41 64 91 106 106 32 12 179 12 190 0z"/>
<path d="M1500 2427 c-55 -19 -70 -60 -70 -192 0 -127 -11 -155 -61 -155 -26
0 -29 -3 -29 -30 0 -25 4 -30 23 -30 13 0 32 -6 43 -14 16 -13 20 -31 24 -143
3 -77 11 -137 19 -151 16 -31 69 -52 126 -52 43 0 45 1 45 29 0 29 -2 30 -52
33 -70 4 -78 21 -78 158 0 88 -3 110 -21 139 -19 32 -19 34 -2 53 15 16 19 44
23 150 6 148 11 158 87 158 41 0 43 1 43 30 0 29 -2 30 -42 29 -24 0 -59 -5
-78 -12z"/>
<path d="M2148 2434 c-5 -4 -8 -18 -8 -31 0 -21 4 -23 48 -23 72 0 79 -12 84
-153 5 -101 9 -123 27 -148 l22 -29 -22 -30 c-19 -25 -23 -47 -28 -155 -7
-142 -8 -145 -84 -145 -47 0 -48 -1 -45 -27 3 -27 5 -28 65 -27 111 2 133 36
133 209 0 112 13 145 56 145 20 0 24 5 24 30 0 25 -4 30 -23 30 -46 0 -57 27
-58 141 0 118 -12 163 -51 192 -28 21 -126 36 -140 21z"/>
<path d="M2036 2374 c-3 -8 -3 -26 0 -39 4 -18 -22 -91 -41 -113 -1 -1 -17 11
-35 28 -27 25 -29 30 -13 30 10 0 24 -5 31 -12 9 -9 12 -8 12 5 0 9 -8 17 -17
17 -15 0 -16 2 -3 10 13 8 13 10 1 10 -11 0 -8 6 7 20 12 12 22 22 22 24 0 5
-72 -1 -102 -9 -14 -4 -35 -2 -47 5 -18 9 -21 8 -21 -10 0 -11 4 -20 9 -20 4
0 7 -11 6 -25 -2 -14 1 -25 6 -25 6 0 7 -15 3 -35 -4 -22 -2 -41 6 -50 7 -8
10 -22 6 -31 -9 -24 -49 -13 -64 18 -11 24 -11 33 4 63 16 35 16 36 -7 61 -34
37 -72 54 -120 54 -35 0 -40 -2 -34 -17 16 -37 17 -79 2 -92 -14 -11 -13 -15
5 -33 14 -14 19 -29 16 -54 -4 -31 -1 -35 29 -45 18 -6 39 -19 46 -29 13 -19
14 -19 65 0 29 11 52 17 52 14 0 -3 -14 -26 -31 -50 -33 -48 -81 -84 -113 -84
-15 0 -17 5 -12 31 3 17 6 38 6 46 0 13 3 13 15 3 17 -14 19 -7 5 20 -8 15
-57 40 -79 40 -4 0 -5 -18 -3 -40 4 -34 7 -39 18 -29 23 19 26 4 4 -24 -24
-31 -26 -80 -3 -98 9 -8 37 -14 65 -13 33 0 48 -4 48 -13 0 -7 -8 -13 -17 -14
-11 0 -13 -3 -5 -6 6 -2 12 -15 12 -29 0 -18 -8 -26 -32 -33 -31 -9 -32 -9 -6
-10 23 -1 27 -6 33 -40 5 -30 10 -38 22 -34 9 4 13 14 10 29 -5 29 8 31 25 4
18 -29 31 -25 23 7 -6 24 -5 25 11 13 14 -13 16 -12 13 5 -2 11 -15 22 -29 25
-36 8 -40 53 -6 76 14 9 26 23 26 30 0 8 9 14 19 14 17 0 19 -4 10 -32 -13
-47 -13 -48 28 -27 46 24 63 24 64 2 0 -15 2 -14 9 3 5 12 25 32 46 45 21 13
42 27 47 31 6 4 4 13 -6 22 -20 20 -25 20 -45 -2 -10 -9 -14 -13 -9 -8 11 15
8 28 -5 24 -7 -3 -15 -15 -18 -29 -3 -13 -14 -25 -23 -27 -15 -3 -17 2 -11 37
l7 41 -34 0 -34 0 38 35 c20 19 42 46 47 60 5 14 17 25 27 25 15 0 16 -2 3
-10 -11 -7 -4 -10 27 -10 29 0 45 -5 53 -17 10 -16 11 -15 7 5 -6 24 3 28 21
10 9 -9 12 -8 12 4 0 9 -10 20 -22 24 -22 7 -22 7 -3 14 18 7 18 9 3 15 -9 4
-28 -1 -42 -10 -24 -16 -28 -16 -51 -1 -14 9 -25 20 -25 25 0 5 -3 18 -6 28
-5 14 -4 15 4 4 8 -12 17 -4 43 38 22 35 37 50 47 46 12 -4 13 -3 3 9 -17 20
-5 55 22 67 20 9 19 9 -5 6 -28 -4 -38 7 -15 16 8 4 7 6 -3 6 -9 1 -22 -5 -29
-11 -11 -10 -13 -10 -7 0 4 6 3 12 -2 12 -6 0 -13 -7 -16 -16z"/>
<path d="M3343 2138 c-22 -11 -23 -17 -23 -128 0 -129 1 -130 61 -130 45 0 89
27 105 65 28 67 10 171 -34 194 -26 14 -80 13 -109 -1z"/>
<path d="M2957 2158 c-20 -62 -37 -119 -37 -126 0 -8 23 -12 75 -12 41 0 75 4
75 8 0 10 -43 152 -62 205 l-14 39 -37 -114z"/>
<path d="M3763 2144 c-30 -15 -67 -70 -57 -86 3 -4 48 -8 100 -8 101 0 104 2
84 54 -9 24 -56 56 -82 56 -7 0 -27 -7 -45 -16z"/>
<path d="M4951 2131 c-47 -47 -51 -166 -8 -217 13 -14 37 -27 58 -30 31 -5 42
-1 70 24 30 26 33 36 37 94 4 71 -12 119 -47 138 -32 17 -89 12 -110 -9z"/>
<path d="M5740 2031 c0 -131 3 -138 64 -148 87 -14 144 99 102 201 -20 48 -51
66 -113 66 l-53 0 0 -119z"/>
<path d="M6560 2125 c-32 -34 -41 -145 -17 -192 29 -55 103 -67 147 -23 46 46
47 158 3 211 -34 40 -98 41 -133 4z"/>
</g>
</svg>
