<?xml version="1.0" encoding="UTF-8" standalone="no"?>
<!-- Created with Inkscape (http://www.inkscape.org/) -->

<svg
   xmlns:dc="http://purl.org/dc/elements/1.1/"
   xmlns:cc="http://creativecommons.org/ns#"
   xmlns:rdf="http://www.w3.org/1999/02/22-rdf-syntax-ns#"
   xmlns:svg="http://www.w3.org/2000/svg"
   xmlns="http://www.w3.org/2000/svg"
   xmlns:sodipodi="http://sodipodi.sourceforge.net/DTD/sodipodi-0.dtd"
   xmlns:inkscape="http://www.inkscape.org/namespaces/inkscape"
   width="851"
   height="315"
   viewBox="0 0 3015.3544 0"
   id="svg27529"
   version="1.1"
   inkscape:version="0.91 r13725"
   sodipodi:docname="header.svg"
   inkscape:export-filename="/home/kragniz/git/branding/logo.png"
   inkscape:export-xdpi="302.29001"
   inkscape:export-ydpi="302.29001">
  <defs
     id="defs27531" />
  <sodipodi:namedview
     id="base"
     pagecolor="#ffffff"
     bordercolor="#666666"
     borderopacity="1.0"
     inkscape:pageopacity="0.0"
     inkscape:pageshadow="2"
     inkscape:zoom="0.5"
     inkscape:cx="214.38172"
     inkscape:cy="39.498339"
     inkscape:document-units="px"
     inkscape:current-layer="layer1"
     showgrid="false"
     fit-margin-top="10"
     fit-margin-left="20"
     fit-margin-right="20"
     fit-margin-bottom="10"
     inkscape:window-width="1366"
     inkscape:window-height="704"
     inkscape:window-x="0"
     inkscape:window-y="27"
     inkscape:window-maximized="1"
     units="px" />
  <metadata
     id="metadata27534">
    <rdf:RDF>
      <cc:Work
         rdf:about="">
        <dc:format>image/svg+xml</dc:format>
        <dc:type
           rdf:resource="http://purl.org/dc/dcmitype/StillImage" />
        <dc:title></dc:title>
      </cc:Work>
    </rdf:RDF>
  </metadata>
  <g
     inkscape:label="Layer 1"
     inkscape:groupmode="layer"
     id="layer1"
     transform="translate(-20.11689,-458.83621)">
    <circle
       r="65.489166"
       cy="568.91394"
       cx="208.4722"
       id="path4242-3"
       style="fill:#000000;fill-opacity:1" />
    <text
       sodipodi:linespacing="125%"
       id="text3604-6"
       y="562.14124"
       x="156.10284"
       style="font-style:normal;font-weight:normal;font-size:85.01146698px;line-height:125%;font-family:sans-serif;letter-spacing:0px;word-spacing:0px;fill:#ffffff;fill-opacity:1;stroke:none;stroke-width:1px;stroke-linecap:butt;stroke-linejoin:miter;stroke-opacity:1"
       xml:space="preserve"
       transform="scale(0.94819805,1.054632)"><tspan
         style="font-style:normal;font-variant:normal;font-weight:normal;font-stretch:normal;font-family:'Ubuntu Mono';-inkscape-font-specification:'Ubuntu Mono';fill:#ffffff"
         y="562.14124"
         x="156.10284"
         id="tspan3606-3"
         sodipodi:role="line">{ }</tspan></text>
    <path
       id="path5782-1"
       d="m 211.91778,540.06643 c 1.32791,-0.64439 1.65179,-0.16349 1.65179,-0.16349 0,0 0.12772,1.14145 -0.16031,1.10874 -0.92226,-0.1407 -2.95,0.13063 -2.95,0.13063 0,0 0.13062,-0.42842 1.45853,-1.07598 m 22.0378,24.65759 c 0.24218,-0.92565 0.19316,-2.30587 -0.45452,-2.88798 -0.6476,-0.59528 -3.52267,-1.32791 -3.52267,-1.32791 -0.69007,-1.57325 3.76799,0.0949 3.76799,0.0949 0.14704,-2.453 -3.03193,-3.01239 -4.70976,-2.43663 -3.80054,5.12841 -9.03027,0.32381 -9.03027,-1.43252 -0.34013,-6.30918 -5.10227,-9.57326 -6.72774,-10.247 -1.62239,-0.67055 -2.90784,-1.32471 -2.90784,-1.32471 0,0 2.41051,0.96818 4.51043,0.36312 1.28847,-0.3761 4.14712,2.36135 4.65082,2.93709 -0.0297,-0.2027 -0.1733,-3.44076 -0.0423,-3.65014 -0.83094,-0.27149 -2.77691,0.0784 -3.68272,-0.41201 -0.29129,-0.13115 -0.45483,-0.34992 -0.34355,-0.6905 0,0 3.13989,0.56912 4.36639,0.34017 1.31145,-0.252 2.26647,-0.87997 1.88064,-1.71061 -0.0721,0.96819 -1.38366,1.38679 -2.76042,1.12508 -1.3803,-0.27149 -3.14306,-1.10873 -3.14306,-1.10873 0,0 1.37678,-2.47914 3.41122,-0.88312 0,-1.16103 0.17992,-2.26974 0.50035,-2.55761 0.77181,-0.26179 1.61583,-0.73605 1.61583,-0.73605 -2.39437,-0.76517 -4.77201,0.77196 -5.30191,0.43837 -0.5297,-0.3304 -0.53965,-0.628 -1.54051,-0.628 -1.2886,0 -5.74637,1.8513 -5.74637,1.8513 -4.38282,0.25173 -5.73036,-3.22175 -5.73036,-3.22175 -1.72028,5.89376 3.14624,5.77939 3.14624,5.77939 -1.62546,0.2353 -3.09385,2.74407 -3.09385,2.74407 1.28527,-0.80449 3.17244,-0.59528 2.84535,-0.54299 -1.24598,0.22894 -1.92631,2.64606 -1.6941,2.4039 0.76847,-0.83065 1.89038,-0.84702 1.89038,-0.76197 0,0.89952 -1.13486,7.29693 -0.81449,8.00982 0.67714,1.52094 2.26025,2.56759 2.32541,4.167 -5.28529,5.23959 -12.13088,-3.91188 -5.00389,-10.9012 -8.67383,-12.30434 -16.86044,-8.4352 -19.44102,-8.62144 2.19462,1.79225 6.20777,9.50438 -0.32052,12.47425 4.99112,1.2854 5.03026,8.29763 3.29684,10.84885 5.01063,-0.3238 9.14817,3.843 9.53733,5.83487 3.09726,-0.8995 8.06221,-4.63131 11.16279,-3.6697 -0.81766,0.13409 -3.13973,3.94119 -3.13973,3.94119 -6.03446,10.27977 -13.11543,10.3582 -13.88743,8.51684 -0.46775,-1.3738 2.0801,-3.74818 0.9812,-7.84311 0,0 1.24281,-0.3761 3.09421,2.36479 0,0 0.66051,-1.11867 0.11764,-2.19149 -2.5806,-5.05634 -10.13237,-5.70394 -10.71466,-4.62132 1.95587,0.28764 2.26326,2.20108 2.26326,3.92144 -0.1277,1.34747 -0.59185,3.82663 -0.19632,4.41213 0.89288,-2.83891 3.64023,-3.47669 3.64023,-3.47669 0.0917,3.64998 -5.24936,4.81439 -4.2846,10.19133 0.2618,1.66149 1.09905,2.94688 2.44326,3.8366 3.23157,1.34428 6.43019,2.1717 11.70594,-0.50705 0,0 -0.68033,0.71626 -1.18738,3.70244 0,0 -1.69428,-0.22548 -3.52906,0.75879 2.53477,0.29104 2.21743,0.0917 2.65905,1.0237 1.69426,3.54556 -0.54299,3.79072 0.10148,5.01402 0,0.64765 -0.58545,-1.03024 -0.71307,-0.51344 -1.17076,1.20356 -4.88956,0.25835 -5.23961,1.98846 0.3991,-0.15685 3.62727,-1.18715 5.49818,1.19716 -0.77519,2.75382 2.18787,4.74572 0.51662,7.11046 -0.51662,0.64762 2.85866,-1.92002 2.85866,-1.92002 -0.12772,-1.53074 0.19953,-2.99598 -0.63784,-4.47424 l 0.87339,0.0623 c 1.65145,1.55691 3.67951,2.10628 3.35229,4.7948 1.29199,-0.5757 1.7532,-1.30175 1.81533,-2.64604 -0.25144,-1.34408 -1.48811,-1.70065 -2.07036,-2.59352 0.58225,-0.51346 2.56751,-0.40221 3.54871,1.5273 0.83427,-0.63441 0.32388,-1.8609 0.45165,-2.75062 -0.84082,-1.92323 -3.35562,-1.03028 -4.96174,-1.73016 -3.10379,-0.45455 -0.52316,-1.72038 -1.10579,-3.70247 -0.19263,-3.1463 3.61451,-3.25747 5.29216,-5.24936 -0.89624,-3.33935 -1.97532,-4.4515 -1.07942,-5.78581 -0.11791,0.22894 -0.48726,1.14806 0.27468,2.50851 0.88312,1.59281 4.04569,0.5332 4.04569,0.5332 0.50721,2.08991 -2.7472,8.65741 -1.09891,8.7686 0.0159,-2.95007 6.51214,-4.29757 10.06085,-5.06294 l -0.42211,1.13486 c -0.39237,1.15463 0,1.9723 0.58209,2.99282 0.30742,-2.65263 0.39911,-3.13997 1.24631,-3.83003 2.12928,-2.68516 5.23962,-3.49648 7.88537,-5.67137 0.70986,-0.51686 2.06397,-0.69989 2.18822,-1.66806 -0.90281,-0.57555 -2.18822,-0.18309 -3.28714,-0.31402 -1.03025,0.3827 -1.80206,1.92321 -2.90096,1.65829 1.1578,-1.34427 2.32204,-2.62629 3.86907,-3.19541 -0.45134,-1.21355 -1.87392,-0.19319 -2.51498,-0.96819 -0.97145,-0.24537 -1.16452,1.09895 -1.55038,1.73675 -0.70986,0.89951 -1.48489,2.48893 -2.64913,2.42687 0.39237,-1.08257 1.36035,-1.85113 2.07022,-2.74089 l 0.57891,-1.42273 c -4.64107,-1.14806 -2.31887,4.1636 -4.4515,5.89054 -1.09889,0.12428 -2.25338,0.96482 -3.28698,0.44793 0.38935,-2.29591 1.22652,-4.40872 1.09569,-6.90765 -1.09569,-2.75381 -4.90282,-0.63759 -6.96967,-0.63759 2.38754,-2.81295 8.44482,-5.88737 9.84125,-12.25525 -2.60008,-0.85702 -3.43085,-1.99189 -4.39575,-3.71885 2.51192,3.44733 5.44565,3.09081 8.02303,3.92804 0,0 -2.78997,0.88313 -2.98626,2.11624 3.56836,-1.8709 3.79416,-0.44496 5.79238,-0.84062 2.24377,-0.42842 3.52266,1.36383 4.36653,3.5913 0.13726,-0.11448 0.24536,-0.83087 0.34672,-2.01164 -0.543,-1.97211 -1.63884,-2.65244 -1.63884,-2.65244 1.49146,-0.84061 2.84553,0.86996 4.52336,2.14558 m -14.6591,-12.54312 c 0.62793,1.05005 0.86016,1.44249 1.01728,3.20859 0,0 4.01313,-4.20273 6.60044,-10.38775 l 0.89291,-0.13725 c 2.9238,1.4686 3.96693,-0.45458 3.96693,-0.45458 -2.93052,1.33771 -3.76764,-1.76606 -3.46963,-2.35818 0.64427,-2.31566 1.19376,-4.67383 5.4554,-3.87256 -0.15025,-1.68426 -1.09236,-1.67445 -2.4856,-1.67445 -1.13545,-0.062 -2.38434,0.79471 -3.26748,1.86091 l 0.14706,-1.77587 c 0.77872,-0.6967 2.41053,-1.06304 2.86809,-1.88725 -1.4255,-0.52323 -2.2371,0.1603 -3.6565,0.60506 -1.83161,0.66395 -1.50134,1.8186 -2.21394,2.65581 0,0 -0.66387,-1.52077 1.10881,-2.76702 0,0 -1.62561,-0.91909 -2.58063,1.01071 -1.48812,2.84865 0.31683,4.01967 0.70636,6.19143 -0.71943,2.24698 -1.64876,3.16268 -5.08934,9.78248"
       inkscape:connector-curvature="0"
       style="fill:#ffffff;fill-rule:nonzero" />
    <flowRoot
       xml:space="preserve"
       id="flowRoot27656"
       style="font-style:normal;font-weight:normal;font-size:97.91392517px;line-height:125%;font-family:sans-serif;letter-spacing:0px;word-spacing:0px;fill:#000000;fill-opacity:1;stroke:none;stroke-width:1px;stroke-linecap:butt;stroke-linejoin:miter;stroke-opacity:1"
       transform="matrix(0.82387537,0,0,0.82387537,55.210383,219.1222)"><flowRegion
         id="flowRegion27658"><rect
           id="rect27660"
           width="1092.9335"
           height="262.1062"
           x="296.53409"
           y="349.56229" /></flowRegion><flowPara
         id="flowPara27662"
         style="font-style:normal;font-variant:normal;font-weight:normal;font-stretch:normal;font-family:'Ubuntu Mono';-inkscape-font-specification:'Ubuntu Mono'">AberCompSoc</flowPara></flowRoot>  </g>
</svg>
