<?xml version="1.0" encoding="UTF-8" standalone="no"?>
<!-- Created with Inkscape (http://www.inkscape.org/) -->

<svg
   xmlns:dc="http://purl.org/dc/elements/1.1/"
   xmlns:cc="http://creativecommons.org/ns#"
   xmlns:rdf="http://www.w3.org/1999/02/22-rdf-syntax-ns#"
   xmlns:svg="http://www.w3.org/2000/svg"
   xmlns="http://www.w3.org/2000/svg"
   xmlns:sodipodi="http://sodipodi.sourceforge.net/DTD/sodipodi-0.dtd"
   xmlns:inkscape="http://www.inkscape.org/namespaces/inkscape"
   width="44.867218mm"
   height="44.867218mm"
   viewBox="0 0 158.97833 158.97833"
   id="svg27529"
   version="1.1"
   inkscape:version="0.91 r13725"
   sodipodi:docname="logo.svg">
  <defs
     id="defs27531" />
  <sodipodi:namedview
     id="base"
     pagecolor="#ffffff"
     bordercolor="#666666"
     borderopacity="1.0"
     inkscape:pageopacity="0.0"
     inkscape:pageshadow="2"
     inkscape:zoom="1.979899"
     inkscape:cx="101.90492"
     inkscape:cy="73.660014"
     inkscape:document-units="px"
     inkscape:current-layer="layer1"
     showgrid="false"
     fit-margin-top="0"
     fit-margin-left="0"
     fit-margin-right="0"
     fit-margin-bottom="0"
     inkscape:window-width="1366"
     inkscape:window-height="704"
     inkscape:window-x="0"
     inkscape:window-y="27"
     inkscape:window-maximized="1" />
  <metadata
     id="metadata27534">
    <rdf:RDF>
      <cc:Work
         rdf:about="">
        <dc:format>image/svg+xml</dc:format>
        <dc:type
           rdf:resource="http://purl.org/dc/dcmitype/StillImage" />
        <dc:title></dc:title>
      </cc:Work>
    </rdf:RDF>
  </metadata>
  <g
     inkscape:label="Layer 1"
     inkscape:groupmode="layer"
     id="layer1"
     transform="translate(-90.983032,-379.4248)">
    <circle
       r="79.489166"
       cy="458.91397"
       cx="170.4722"
       id="path4242-3"
       style="fill:#000000;fill-opacity:1" />
    <text
       sodipodi:linespacing="125%"
       id="text3604-6"
       y="462.69168"
       x="102.3968"
       style="font-style:normal;font-weight:normal;font-size:103.18486023px;line-height:125%;font-family:sans-serif;letter-spacing:0px;word-spacing:0px;fill:#ffffff;fill-opacity:1;stroke:none;stroke-width:1px;stroke-linecap:butt;stroke-linejoin:miter;stroke-opacity:1"
       xml:space="preserve"
       transform="scale(0.94819805,1.054632)"><tspan
         style="font-style:normal;font-variant:normal;font-weight:normal;font-stretch:normal;font-family:'Ubuntu Mono';-inkscape-font-specification:'Ubuntu Mono';fill:#ffffff"
         y="462.69168"
         x="102.3968"
         id="tspan3606-3"
         sodipodi:role="line">{ }</tspan></text>
    <path
       id="path5782-1"
       d="m 174.65436,423.89953 c 1.61179,-0.78215 2.00491,-0.19844 2.00491,-0.19844 0,0 0.15502,1.38547 -0.19459,1.34576 -1.11941,-0.17078 -3.58064,0.15856 -3.58064,0.15856 0,0 0.15855,-0.52001 1.77034,-1.306 m 26.74894,29.92878 c 0.29395,-1.12353 0.23446,-2.79881 -0.55168,-3.50535 -0.78604,-0.72254 -4.27573,-1.61179 -4.27573,-1.61179 -0.83759,-1.90957 4.57349,0.11517 4.57349,0.11517 0.17848,-2.97739 -3.68008,-3.65636 -5.71659,-2.95752 -4.613,6.22474 -10.96073,0.39304 -10.96073,-1.73875 -0.41284,-7.65793 -6.19301,-11.6198 -8.16596,-12.43757 -1.96922,-0.8139 -3.52947,-1.6079 -3.52947,-1.6079 0,0 2.92582,1.17515 5.47465,0.44075 1.56391,-0.4565 5.03367,2.86615 5.64506,3.56497 -0.0361,-0.24604 -0.21035,-4.17631 -0.0514,-4.43046 -1.00857,-0.32952 -3.37054,0.0952 -4.46999,-0.50008 -0.35356,-0.15919 -0.55206,-0.42473 -0.41699,-0.83811 0,0 3.81112,0.69078 5.29981,0.41288 1.59181,-0.30586 2.75099,-1.06808 2.28268,-2.07629 -0.0875,1.17516 -1.67946,1.68325 -3.35053,1.36559 -1.67538,-0.32953 -3.81497,-1.34574 -3.81497,-1.34574 0,0 1.6711,-3.00913 4.14045,-1.07192 0,-1.40923 0.21838,-2.75495 0.60731,-3.10436 0.93681,-0.31776 1.96126,-0.8934 1.96126,-0.8934 -2.90623,-0.92874 -5.79215,0.93698 -6.43533,0.53208 -0.64293,-0.40103 -0.65501,-0.76225 -1.86983,-0.76225 -1.56408,0 -6.97481,2.24707 -6.97481,2.24707 -5.31976,0.30554 -6.95537,-3.91049 -6.95537,-3.91049 -2.08804,7.1537 3.81883,7.01489 3.81883,7.01489 -1.97294,0.2856 -3.75524,3.33068 -3.75524,3.33068 1.56003,-0.97647 3.85063,-0.72254 3.45362,-0.65907 -1.51234,0.27789 -2.33811,3.21173 -2.05626,2.9178 0.93275,-1.00822 2.2945,-1.02809 2.2945,-0.92486 0,1.09181 -1.37747,8.85683 -0.98861,9.72212 0.8219,1.84609 2.74344,3.11648 2.82252,5.05781 -6.41515,6.35968 -14.72416,-4.74815 -6.07359,-13.23162 -10.52809,-14.9347 -20.4648,-10.23844 -23.59704,-10.46449 2.66377,2.17539 7.53483,11.53619 -0.38905,15.14094 6.05811,1.56019 6.10561,10.07146 4.00163,13.16808 6.08178,-0.39302 11.10383,4.66453 11.57618,7.08222 3.75938,-1.09179 9.78571,-5.62137 13.54912,-4.45419 -0.99245,0.16275 -3.81092,4.78372 -3.81092,4.78372 -7.32448,12.47733 -15.91919,12.57253 -16.85623,10.33753 -0.56774,-1.66749 2.52478,-4.54945 1.19096,-9.51978 0,0 1.50849,-0.4565 3.75567,2.87033 0,0 0.80172,-1.35781 0.14279,-2.65998 -3.13227,-6.13726 -12.29842,-6.9233 -13.00519,-5.60925 2.37399,0.34914 2.74709,2.67162 2.74709,4.75975 -0.155,1.63553 -0.71838,4.64467 -0.23829,5.35534 1.08375,-3.4458 4.41842,-4.21992 4.41842,-4.21992 0.11132,4.43025 -6.37155,5.84359 -5.20054,12.36999 0.31776,2.01667 1.334,3.57685 2.96557,4.65677 3.9224,1.63165 7.80481,2.63596 14.20838,-0.61544 0,0 -0.82576,0.86937 -1.44121,4.49393 0,0 -2.05647,-0.27368 -4.28348,0.921 3.07664,0.35326 2.69146,0.11133 3.22748,1.24254 2.05646,4.30352 -0.65906,4.60108 0.12318,6.0859 0,0.7861 -0.71061,-1.25048 -0.86551,-0.6232 -1.42104,1.46085 -5.93483,0.31357 -6.35971,2.41354 0.48442,-0.19038 4.40269,-1.44093 6.67356,1.45308 -0.94091,3.34252 2.65558,5.76025 0.62706,8.63051 -0.62706,0.78607 3.46977,-2.33048 3.46977,-2.33048 -0.15502,-1.85797 0.24218,-3.63644 -0.7742,-5.43072 l 1.06011,0.0756 c 2.00449,1.88973 4.46609,2.55655 4.06892,5.81981 1.56819,-0.69877 2.128,-1.58004 2.20341,-3.2117 -0.3052,-1.63142 -1.80624,-2.06421 -2.51296,-3.14796 0.70672,-0.62322 3.11639,-0.48819 4.30734,1.8538 1.01262,-0.77002 0.39312,-2.25871 0.54821,-3.33863 -1.02057,-2.33437 -4.07298,-1.25053 -6.02244,-2.10003 -3.76731,-0.55172 -0.635,-2.08815 -1.34219,-4.49396 -0.2338,-3.81891 4.38721,-3.95384 6.4235,-6.37155 -1.08784,-4.05322 -2.3976,-5.40313 -1.31017,-7.02268 -0.14312,0.27788 -0.59143,1.39349 0.33339,3.04477 1.07192,1.93331 4.91057,0.64719 4.91057,0.64719 0.61564,2.53668 -3.33449,10.50815 -1.33383,10.64311 0.0193,-3.58072 7.90427,-5.21628 12.21161,-6.14527 l -0.51235,1.37746 c -0.47624,1.40146 0,2.39393 0.70653,3.63262 0.37314,-3.2197 0.48443,-3.81122 1.51274,-4.6488 2.58447,-3.25919 6.35973,-4.24395 9.57108,-6.88378 0.8616,-0.62735 2.50519,-0.84951 2.656,-2.02464 -1.0958,-0.6986 -2.656,-0.22223 -3.98985,-0.38115 -1.25049,0.46451 -2.18729,2.33434 -3.52111,2.01279 1.40531,-1.63164 2.81843,-3.18773 4.69618,-3.87852 -0.54782,-1.47297 -2.27452,-0.23448 -3.05262,-1.17516 -1.17912,-0.29783 -1.41347,1.33388 -1.88182,2.10803 -0.86161,1.0918 -1.80232,3.021 -3.21545,2.94567 0.47626,-1.314 1.65116,-2.24685 2.51279,-3.32682 l 0.70266,-1.72688 c -5.63321,-1.39349 -2.81458,5.05368 -5.40312,7.14979 -1.33381,0.15085 -2.7351,1.17108 -3.98965,0.54369 0.47258,-2.78672 1.48872,-5.3512 1.32992,-8.38434 -1.32992,-3.34251 -5.95093,-0.77389 -8.45962,-0.77389 2.89794,-3.41429 10.25012,-7.14594 11.94507,-14.87512 -3.15591,-1.04023 -4.16428,-2.41771 -5.33545,-4.51385 3.0489,4.18428 6.6098,3.75155 9.73816,4.76776 0,0 -3.3864,1.07192 -3.62465,2.56864 4.33119,-2.27086 4.60526,-0.54009 7.03065,-1.02033 2.72343,-0.52 4.27572,1.65539 5.29998,4.35903 0.16661,-0.13895 0.29782,-1.00848 0.42084,-2.44168 -0.65907,-2.3937 -1.98918,-3.21946 -1.98918,-3.21946 1.8103,-1.02032 3.45384,1.05593 5.49035,2.60425 M 183.6106,438.60347 c 0.76216,1.27452 1.04404,1.75086 1.23475,3.8945 0,0 4.87104,-5.10117 8.01145,-12.6084 l 1.08379,-0.16659 c 3.54884,1.78256 4.81497,-0.55175 4.81497,-0.55175 -3.557,1.62367 -4.57307,-2.14361 -4.21136,-2.86231 0.782,-2.81069 1.44896,-5.67298 6.62163,-4.70042 -0.18237,-2.04431 -1.32588,-2.0324 -3.01696,-2.0324 -1.37818,-0.0753 -2.89405,0.9646 -3.96598,2.25872 l 0.1785,-2.1555 c 0.94518,-0.84564 2.92584,-1.29029 3.48121,-2.2907 -1.73024,-0.63508 -2.71533,0.19457 -4.43817,0.7344 -2.22316,0.80589 -1.82229,2.20738 -2.68722,3.22356 0,0 -0.80579,-1.84587 1.34584,-3.35854 0,0 -1.97313,-1.11557 -3.13231,1.22678 -1.80624,3.45762 0.38456,4.87897 0.85737,7.51501 -0.87323,2.72732 -2.00123,3.83878 -6.17732,11.87373"
       inkscape:connector-curvature="0"
       style="fill:#ffffff;fill-rule:nonzero" />
    <circle
       r="79.489166"
       cy="507.08841"
       cx="-296.91556"
       id="path4242-3-8"
       style="fill:#ffffff;fill-opacity:1" />
    <text
       sodipodi:linespacing="125%"
       id="text3604-6-6"
       y="508.37057"
       x="-390.52527"
       style="font-style:normal;font-weight:normal;font-size:103.18486023px;line-height:125%;font-family:sans-serif;letter-spacing:0px;word-spacing:0px;fill:#ffffff;fill-opacity:1;stroke:none;stroke-width:1px;stroke-linecap:butt;stroke-linejoin:miter;stroke-opacity:1;"
       xml:space="preserve"
       transform="scale(0.94819805,1.054632)"><tspan
         style="font-style:normal;font-variant:normal;font-weight:normal;font-stretch:normal;font-family:'Ubuntu Mono';-inkscape-font-specification:'Ubuntu Mono';fill:#ffffff;"
         y="508.37057"
         x="-390.52527"
         id="tspan3606-3-8"
         sodipodi:role="line">{ }</tspan></text>
    <path
       id="path5782-1-4"
       d="m -292.73338,472.07395 c 1.61179,-0.78215 2.00491,-0.19843 2.00491,-0.19843 0,0 0.15502,1.38546 -0.19459,1.34576 -1.11941,-0.17079 -3.58064,0.15855 -3.58064,0.15855 0,0 0.15855,-0.52 1.77034,-1.306 m 26.74894,29.92879 c 0.29395,-1.12354 0.23446,-2.79881 -0.55168,-3.50536 -0.78604,-0.72253 -4.27573,-1.61178 -4.27573,-1.61178 -0.83759,-1.90958 4.57349,0.11516 4.57349,0.11516 0.17848,-2.97738 -3.68008,-3.65636 -5.71659,-2.95752 -4.613,6.22474 -10.96073,0.39304 -10.96073,-1.73874 -0.41284,-7.65794 -6.19301,-11.6198 -8.16596,-12.43757 -1.96922,-0.81391 -3.52947,-1.60791 -3.52947,-1.60791 0,0 2.92582,1.17516 5.47465,0.44075 1.56391,-0.45649 5.03367,2.86615 5.64506,3.56497 -0.0361,-0.24604 -0.21035,-4.17631 -0.0514,-4.43046 -1.00857,-0.32952 -3.37054,0.0952 -4.46999,-0.50007 -0.35356,-0.15919 -0.55206,-0.42473 -0.41699,-0.83811 0,0 3.81112,0.69078 5.29981,0.41287 1.59181,-0.30586 2.75099,-1.06807 2.28268,-2.07628 -0.0875,1.17516 -1.67946,1.68324 -3.35053,1.36559 -1.67538,-0.32953 -3.81497,-1.34574 -3.81497,-1.34574 0,0 1.6711,-3.00914 4.14045,-1.07193 0,-1.40922 0.21838,-2.75495 0.60731,-3.10435 0.93681,-0.31777 1.96126,-0.8934 1.96126,-0.8934 -2.90623,-0.92874 -5.79215,0.93698 -6.43533,0.53208 -0.64293,-0.40103 -0.65501,-0.76225 -1.86983,-0.76225 -1.56408,0 -6.97481,2.24706 -6.97481,2.24706 -5.31976,0.30554 -6.95537,-3.91049 -6.95537,-3.91049 -2.08804,7.15371 3.81883,7.01489 3.81883,7.01489 -1.97294,0.28561 -3.75524,3.33069 -3.75524,3.33069 1.56003,-0.97647 3.85063,-0.72254 3.45362,-0.65907 -1.51234,0.27788 -2.33811,3.21173 -2.05626,2.9178 0.93275,-1.00823 2.2945,-1.02809 2.2945,-0.92487 0,1.09182 -1.37747,8.85684 -0.98861,9.72213 0.8219,1.84609 2.74344,3.11647 2.82252,5.0578 -6.41515,6.35969 -14.72416,-4.74814 -6.07359,-13.23161 -10.52809,-14.93471 -20.4648,-10.23845 -23.59704,-10.46449 2.66377,2.17538 7.53483,11.53619 -0.38905,15.14094 6.05811,1.56019 6.10561,10.07146 4.00163,13.16808 6.08178,-0.39303 11.10383,4.66452 11.57618,7.08222 3.75938,-1.0918 9.78571,-5.62137 13.54912,-4.45419 -0.99245,0.16275 -3.81092,4.78372 -3.81092,4.78372 -7.32448,12.47733 -15.91919,12.57253 -16.85623,10.33753 -0.56774,-1.6675 2.52478,-4.54945 1.19096,-9.51978 0,0 1.50849,-0.4565 3.75567,2.87033 0,0 0.80172,-1.35781 0.14279,-2.65998 -3.13227,-6.13726 -12.29842,-6.9233 -13.00519,-5.60925 2.37399,0.34914 2.74709,2.67162 2.74709,4.75974 -0.155,1.63553 -0.71838,4.64467 -0.23829,5.35534 1.08375,-3.4458 4.41842,-4.21992 4.41842,-4.21992 0.11132,4.43025 -6.37155,5.84359 -5.20054,12.37 0.31776,2.01666 1.334,3.57684 2.96557,4.65677 3.9224,1.63164 7.80481,2.63595 14.20838,-0.61545 0,0 -0.82576,0.86937 -1.44121,4.49394 0,0 -2.05647,-0.27368 -4.28348,0.921 3.07664,0.35326 2.69146,0.11133 3.22748,1.24254 2.05646,4.30352 -0.65906,4.60108 0.12318,6.0859 0,0.7861 -0.71061,-1.25048 -0.86551,-0.6232 -1.42104,1.46085 -5.93483,0.31357 -6.35971,2.41354 0.48442,-0.19038 4.40269,-1.44093 6.67356,1.45308 -0.94091,3.34252 2.65558,5.76025 0.62706,8.63051 -0.62706,0.78607 3.46977,-2.33048 3.46977,-2.33048 -0.15502,-1.85797 0.24218,-3.63644 -0.7742,-5.43072 l 1.06011,0.0756 c 2.00449,1.88973 4.46609,2.55655 4.06892,5.81981 1.56819,-0.69877 2.128,-1.58004 2.20341,-3.2117 -0.3052,-1.63142 -1.80624,-2.06421 -2.51296,-3.14796 0.70672,-0.62322 3.11639,-0.48819 4.30734,1.8538 1.01262,-0.77002 0.39312,-2.25871 0.54821,-3.33863 -1.02057,-2.33437 -4.07298,-1.25053 -6.02244,-2.10003 -3.76731,-0.55172 -0.635,-2.08815 -1.34219,-4.49396 -0.2338,-3.81891 4.38721,-3.95384 6.4235,-6.37155 -1.08784,-4.05322 -2.3976,-5.40313 -1.31017,-7.02268 -0.14312,0.27787 -0.59143,1.39349 0.33339,3.04477 1.07192,1.93331 4.91057,0.64719 4.91057,0.64719 0.61564,2.53668 -3.33449,10.50815 -1.33383,10.64311 0.0193,-3.58072 7.90427,-5.21628 12.21161,-6.14527 l -0.51235,1.37746 c -0.47624,1.40146 0,2.39393 0.70653,3.63262 0.37314,-3.2197 0.48443,-3.81122 1.51274,-4.6488 2.58447,-3.25919 6.35973,-4.24395 9.57108,-6.88378 0.8616,-0.62736 2.50519,-0.84951 2.656,-2.02465 -1.0958,-0.69859 -2.656,-0.22222 -3.98985,-0.38115 -1.25049,0.46452 -2.18729,2.33434 -3.52111,2.01279 1.40531,-1.63164 2.81843,-3.18772 4.69618,-3.87851 -0.54782,-1.47297 -2.27452,-0.23449 -3.05262,-1.17516 -1.17912,-0.29784 -1.41347,1.33387 -1.88182,2.10802 -0.86161,1.09181 -1.80232,3.02101 -3.21545,2.94568 0.47626,-1.314 1.65116,-2.24685 2.51279,-3.32682 l 0.70266,-1.72688 c -5.63321,-1.39349 -2.81458,5.05367 -5.40312,7.14979 -1.33381,0.15084 -2.7351,1.17108 -3.98965,0.54368 0.47258,-2.78671 1.48872,-5.35119 1.32992,-8.38433 -1.32992,-3.34251 -5.95093,-0.77389 -8.45962,-0.77389 2.89794,-3.41429 10.25012,-7.14594 11.94507,-14.87512 -3.15591,-1.04023 -4.16428,-2.41772 -5.33545,-4.51386 3.0489,4.18428 6.6098,3.75156 9.73816,4.76777 0,0 -3.3864,1.07192 -3.62465,2.56864 4.33119,-2.27087 4.60526,-0.54009 7.03065,-1.02033 2.72343,-0.52001 4.27572,1.65538 5.29998,4.35903 0.16661,-0.13895 0.29782,-1.00848 0.42084,-2.44168 -0.65907,-2.39371 -1.98918,-3.21947 -1.98918,-3.21947 1.8103,-1.02031 3.45384,1.05593 5.49035,2.60425 m -17.79286,-15.22452 c 0.76216,1.27452 1.04404,1.75086 1.23475,3.8945 0,0 4.87104,-5.10118 8.01145,-12.60841 l 1.08379,-0.16658 c 3.54884,1.78255 4.81497,-0.55176 4.81497,-0.55176 -3.557,1.62367 -4.57307,-2.1436 -4.21136,-2.8623 0.782,-2.8107 1.44896,-5.67298 6.62163,-4.70043 -0.18237,-2.04431 -1.32588,-2.0324 -3.01696,-2.0324 -1.37818,-0.0753 -2.89405,0.96461 -3.96598,2.25872 l 0.1785,-2.1555 c 0.94518,-0.84564 2.92584,-1.29029 3.48121,-2.29069 -1.73024,-0.63509 -2.71533,0.19457 -4.43817,0.73439 -2.22316,0.80589 -1.82229,2.20738 -2.68722,3.22357 0,0 -0.80579,-1.84588 1.34584,-3.35854 0,0 -1.97313,-1.11557 -3.13231,1.22677 -1.80624,3.45762 0.38456,4.87898 0.85737,7.51501 -0.87323,2.72733 -2.00123,3.83878 -6.17732,11.87374"
       inkscape:connector-curvature="0"
       style="fill:#ffffff;fill-rule:nonzero" />
  </g>
</svg>
